<?xml version="1.0" encoding="UTF-8" standalone="no"?><!DOCTYPE svg PUBLIC "-//W3C//DTD SVG 1.1//EN" "http://www.w3.org/Graphics/SVG/1.1/DTD/svg11.dtd"><svg width="100%" height="100%" viewBox="0 0 400 400" version="1.1" xmlns="http://www.w3.org/2000/svg" xmlns:xlink="http://www.w3.org/1999/xlink" xml:space="preserve" xmlns:serif="http://www.serif.com/" style="fill-rule:evenodd;clip-rule:evenodd;stroke-linejoin:round;stroke-miterlimit:2;"><path d="M213.3,306.61l0,26.64l-53.21,26.64l0,39.97l-90.09,0.14l-70,0l0,-160l160.09,0l0,39.96l53.21,26.65Zm116.7,-66.61l70,0l0,160l-70,0l0,-0.07l-116.7,0l0,-26.64l53.22,-26.65l0,-53.28l-53.22,-26.65l0,-26.64l116.7,0.2l0,-0.27Zm-190,-220l120,-0c21.943,-0 40,18.057 40,40l0,160l-40,-0l0,-160l-40,-0l0,140l-40,-0l0,-140l-40,-0l0,160l-40,-0l0,-160c0,-21.943 18.057,-40 40,-40Z"/></svg>