<?xml version="1.0" encoding="UTF-8" standalone="no"?><!DOCTYPE svg PUBLIC "-//W3C//DTD SVG 1.1//EN" "http://www.w3.org/Graphics/SVG/1.1/DTD/svg11.dtd"><svg width="100%" height="100%" viewBox="0 0 400 400" version="1.1" xmlns="http://www.w3.org/2000/svg" xmlns:xlink="http://www.w3.org/1999/xlink" xml:space="preserve" xmlns:serif="http://www.serif.com/" style="fill-rule:evenodd;clip-rule:evenodd;stroke-linejoin:round;stroke-miterlimit:2;"><path d="M60,20l280,0c21.943,0 40,18.057 40,40l0,280c0,21.943 -18.057,40 -40,40l-280,0c-21.943,0 -40,-18.057 -40,-40l0,-280c0,-21.943 18.057,-40 40,-40Zm280,40l-280,0l0,280l280,0l0,-280Zm-130,40l40,0l0,160l80,0l0,40l-120,0l0,-200Zm-140,0l40,0l20,50l20,-50l40,0l-40,100l40,100l-40,0l-20,-50l-20,50l-40,0l40,-100l-40,-100Z"/></svg>