<?xml version="1.0" encoding="UTF-8" standalone="no"?><!DOCTYPE svg PUBLIC "-//W3C//DTD SVG 1.1//EN" "http://www.w3.org/Graphics/SVG/1.1/DTD/svg11.dtd"><svg width="100%" height="100%" viewBox="0 0 400 400" version="1.1" xmlns="http://www.w3.org/2000/svg" xmlns:xlink="http://www.w3.org/1999/xlink" xml:space="preserve" xmlns:serif="http://www.serif.com/" style="fill-rule:evenodd;clip-rule:evenodd;"><path id="qt" d="M285,315l-85,85l-200,-200l85,-85l-59.997,-59.997l19.997,-19.997l59.997,59.997l200,200l60.001,60.001l-19.997,19.997l-60.001,-60.001Zm-190,-190l-75,75l180,180l75,-75l-10,-10l-65,65l-160,-160l65,-65l-10,-10Zm25,25l-50,50l130,130l50,-50l-30.999,-31l-68.001,0l0,-68.001l-31,-30.999Zm60,59.999l0,10.001l10.001,0l-10.001,-10.001Zm-55.006,-134.993l75.006,-75.006l200,200l-75.006,75.006l-10,-10l65.006,-65.006l-180,-180l-65.006,65.006l-10,-10Zm20,20l55.006,-55.006l160,160l-55.006,55.006l-15,-15l40.006,-40.006l-130,-130l-40.006,40.006l-15,-15Zm55.993,55.994l48.013,0l0,48.013l-48.013,-48.013Z" style="stroke:#000;stroke-width:1px;"/></svg>