<?xml version="1.0" encoding="UTF-8" standalone="no"?><!DOCTYPE svg PUBLIC "-//W3C//DTD SVG 1.1//EN" "http://www.w3.org/Graphics/SVG/1.1/DTD/svg11.dtd"><svg width="100%" height="100%" viewBox="0 0 400 400" version="1.1" xmlns="http://www.w3.org/2000/svg" xmlns:xlink="http://www.w3.org/1999/xlink" xml:space="preserve" xmlns:serif="http://www.serif.com/" style="fill-rule:evenodd;clip-rule:evenodd;stroke-linejoin:round;stroke-miterlimit:2;"><path id="ship" d="M242.86,240l8.57,60l-17.14,0l-8.57,-51.43l-8.57,0l0,25.71l-34.29,0l0,-25.71l-8.57,0l-8.58,51.43l-17.14,0l8.57,-60l-77.14,25.71l-0,-34.29l77.14,-60l-0,-25.71l17.15,-25.71l-0,-8.57c-0,-17.14 17.14,-51.43 17.14,-51.43l17.14,0c-0,0 17.14,34.29 17.14,51.43l-0,8.57l17.14,25.71l-0,25.71l77.14,60l-0,34.29l-77.13,-25.71Z"/><rect id="wake_left" x="80.01" y="280" width="20" height="120" style="fill:#ebebeb;"/><rect x="80.01" y="280" width="20" height="120"/><rect id="wake_right" x="300.01" y="280" width="19.99" height="120" style="fill:#ebebeb;"/><rect x="300.01" y="280" width="19.99" height="120"/><path id="qt_bubble_front" d="M199.995,30c-24.264,12.847 -87.459,58.849 -119.995,147.443l0,-37.438c19.451,-66.418 75.784,-115.371 102.205,-130.699c3.276,-1.9 17.324,-9.169 17.785,-9.304c-0,-0.001 -0,-0.002 0,-0.002c0.001,-0 0.003,0 0.005,0.001c0.002,-0.001 0.004,-0.001 0.005,-0.001c0,-0 0,0.001 0,0.002c0.461,0.135 14.509,7.404 17.785,9.304c26.421,15.328 82.754,64.281 102.205,130.699l0,37.438c-32.536,-88.594 -95.731,-134.596 -119.995,-147.443Z"/></svg>