<?xml version="1.0" encoding="UTF-8" standalone="no"?><!DOCTYPE svg PUBLIC "-//W3C//DTD SVG 1.1//EN" "http://www.w3.org/Graphics/SVG/1.1/DTD/svg11.dtd"><svg width="100%" height="100%" viewBox="0 0 400 400" version="1.1" xmlns="http://www.w3.org/2000/svg" xmlns:xlink="http://www.w3.org/1999/xlink" xml:space="preserve" xmlns:serif="http://www.serif.com/" style="fill-rule:evenodd;clip-rule:evenodd;stroke-linejoin:round;stroke-miterlimit:2;"><path id="limit" d="M140,240l60,-60l0,120l-60,-60Zm128.545,-26.614l-0.096,105.318l-6.244,6.244l-35.913,0l-6.292,-6.292l0,-105.222l10.019,-19.699l-0,-45.689l14.229,-49.949l14.278,49.9l0,45.69l10.019,19.699Zm55.757,-19.747l9.971,19.747l-0.049,105.27l-6.292,6.292l-35.913,0l-6.292,-6.292l0.097,-105.319l10.019,-19.698l-0,-45.69l14.23,-49.949l14.229,49.949l0,45.69Zm37.22,-45.642l14.23,-49.949l14.229,49.949l0,45.69l10.019,19.699l-0.048,105.27l-6.292,6.292l-35.913,0l-6.292,-6.292l0.048,-105.173l10.019,-19.699l-0,-45.787Zm-241.522,-87.997l-0,340l-120,0l-0,-20l80,0l-0,-30l-40,0l-0,-20l40,0l-0,-30l-40,0l-0,-20l40,0l-0,-30l-80,0l-0,-20l80,0l-0,-30l-40,0l-0,-20l40,0l-0,-30l-40,0l-0,-20l40,0l-0,-70l-30,30l-20,-20l70,-70l70,70l-20,20l-30,-30Z"/></svg>