<?xml version="1.0" encoding="UTF-8" standalone="no"?><!DOCTYPE svg PUBLIC "-//W3C//DTD SVG 1.1//EN" "http://www.w3.org/Graphics/SVG/1.1/DTD/svg11.dtd"><svg width="100%" height="100%" viewBox="0 0 400 400" version="1.1" xmlns="http://www.w3.org/2000/svg" xmlns:xlink="http://www.w3.org/1999/xlink" xml:space="preserve" xmlns:serif="http://www.serif.com/" style="fill-rule:evenodd;clip-rule:evenodd;stroke-linejoin:round;stroke-miterlimit:2;"><path d="M120,280l-0,-80l30,0l-0,80l-30,0Zm-0,-160l-0,-80l30,0l-0,80l-30,0Zm-0,320l-0,-80l30,0l-0,80l-30,0Zm-60,-240l-0,-80l30,0l-0,80l-30,0Zm0,-160l0,-80l30,0l0,80l-30,0Zm-0,320l-0,-80l30,0l-0,80l-30,0Zm250,-80l-0,-80l30,0l-0,80l-30,0Zm-0,-160l-0,-80l30,0l-0,80l-30,0Zm-0,320l-0,-80l30,0l-0,80l-30,0Zm-60,-240l0,-80l30,0l0,80l-30,0Zm0,-160l0,-80l30,0l0,80l-30,0Zm0,320l0,-80l30,0l0,80l-30,0Z"/></svg>