<?xml version="1.0" encoding="utf-8"?>
<!-- Generator: Adobe Illustrator 27.4.0, SVG Export Plug-In . SVG Version: 6.00 Build 0)  -->
<svg version="1.1" id="icon" xmlns="http://www.w3.org/2000/svg" xmlns:xlink="http://www.w3.org/1999/xlink" x="0px" y="0px"
	 viewBox="0 0 400 400" style="enable-background:new 0 0 400 400;" xml:space="preserve">
<path d="M340,200c0-24.74-34.95-45.99-84.84-55.16C245.99,94.95,224.74,60,200,60s-45.99,34.95-55.16,84.84
	C94.95,154.01,60,175.26,60,200s34.95,45.99,84.84,55.16C154.01,305.05,175.26,340,200,340s45.99-34.95,55.16-84.84
	C305.05,245.99,340,224.74,340,200z M200,90c10.65,0,20,20.33,25.32,50.98c-8.21-0.64-16.67-0.98-25.32-0.98s-17.11,0.34-25.32,0.98
	C180,110.33,189.35,90,200,90z M230,200c0,10.02-0.37,19.72-1.05,28.95c-9.22,0.68-18.93,1.05-28.95,1.05s-19.72-0.37-28.95-1.05
	c-0.68-9.22-1.05-18.93-1.05-28.95s0.37-19.72,1.05-28.95c9.22-0.68,18.93-1.05,28.95-1.05s19.72,0.37,28.95,1.05
	C229.63,180.28,230,189.98,230,200z M90,200c0-10.65,20.33-20,50.98-25.32c-0.64,8.21-0.98,16.67-0.98,25.32s0.34,17.11,0.98,25.32
	C110.33,220,90,210.65,90,200z M200,310c-10.65,0-20-20.33-25.32-50.98c8.21,0.64,16.67,0.98,25.32,0.98s17.11-0.34,25.32-0.98
	C220,289.67,210.65,310,200,310z M259.02,225.32c0.64-8.21,0.98-16.67,0.98-25.32s-0.34-17.11-0.98-25.32
	C289.67,180,310,189.35,310,200S289.67,220,259.02,225.32z"/>
<path d="M200.17,400H200c-10.44,0-20.92-0.81-31.16-2.41l-0.05-0.01l3.1-19.76h0.04c9.21,1.45,18.66,2.18,28.07,2.18h0.08l0.07-0.07
	l0.01,0.12L200.17,400z M231.33,397.56l-3.12-19.76h0.05c9.28-1.47,18.5-3.68,27.4-6.57l0,0l0.11-0.05l0.02,0.06l6.16,18.98
	l-0.05,0.02c-9.92,3.22-20.19,5.68-30.52,7.31L231.33,397.56z M138.37,390.31l-0.06-0.01c-9.93-3.21-19.69-7.25-29.01-12.01
	l-0.05-0.02l0.03-0.04l9.06-17.78l0.04,0.03c8.37,4.26,17.14,7.89,26.05,10.78v-0.01l0.1,0.04l-0.01,0.01h0.01l-0.01,0.04
	L138.37,390.31z M290.84,378.23l-0.02-0.05l-9.08-17.76l0.04-0.03c8.35-4.26,16.44-9.23,24.03-14.76v-0.13l0.07,0.09l0.03-0.03v0.06
	l11.74,16.13l-0.07,0.06h-0.01c-8.43,6.14-17.41,11.65-26.69,16.39L290.84,378.23z M82.58,361.93l-0.05-0.05
	c-8.44-6.14-16.47-12.98-23.85-20.36l-0.04-0.03l14.14-14.15l0.03,0.03c6.66,6.65,13.89,12.82,21.49,18.34l0.01,0.01l0.11,0.08h-0.1
	L82.58,361.93z M341.41,341.43l-14.14-14.14l0.03-0.03c6.65-6.65,12.82-13.87,18.35-21.47v-0.1l0.08,0.08l16.14,11.72l-0.03,0.04
	c0,0-0.01,0.01-0.02,0.02c-6.13,8.43-12.99,16.45-20.38,23.85L341.41,341.43z M38.32,317.74L38.32,317.74L38.32,317.74l-0.04-0.04
	c-6.15-8.45-11.68-17.44-16.43-26.72l-0.03-0.04l0.05-0.03l17.76-9.09l0.02,0.05c4.27,8.34,9.23,16.41,14.76,24.01l0.01-0.01
	l0.05,0.08v0.01l0,0l-0.03,0.03L38.32,317.74z M378.22,290.84l-17.81-9.09l0.02-0.04c4.28-8.38,7.91-17.15,10.81-26.07h-0.01
	l0.02-0.04l0.05,0.02l0.01-0.04l18.99,6.15l-0.03,0.05c-3.23,9.94-7.27,19.7-12.02,29.02L378.22,290.84z M9.81,262.06L9.8,262
	c-3.24-9.94-5.7-20.2-7.33-30.52l-0.01-0.05l19.75-3.12l0.01,0.05c1.47,9.28,3.68,18.5,6.58,27.41h0.01l0.01,0.05l0,0l0.01,0.03
	l-0.05,0.02l0.01,0.01L9.81,262.06z M397.56,231.31l-19.76-3.1l0.01-0.05c1.45-9.25,2.19-18.73,2.19-28.16c0-0.13,0-0.25,0-0.38
	v-0.05l0.05-0.02L400,199.5v0.5c0,10.48-0.82,21-2.43,31.27L397.56,231.31z M0,200.27v-0.03l-0.07-0.07H0V200
	c0-10.4,0.81-20.85,2.4-31.05l0.01-0.05l19.76,3.08l-0.01,0.05C20.73,181.22,20,190.63,20,200l-0.05,0.26L0,200.27z M377.76,171.5
	l-0.01-0.05c-1.48-9.29-3.71-18.52-6.63-27.44l-0.02-0.06l0,0v-0.01h0.05l18.97-6.2l0.01,0.05c3.25,9.92,5.72,20.19,7.37,30.51
	l0.01,0.05L377.76,171.5z M28.63,144.61l-18.98-6.13l0.01-0.04c0,0,0-0.01,0-0.02c3.22-9.94,7.25-19.7,12-29.02l0.02-0.05l0.04,0.02
	l17.78,9.05l-0.02,0.05c-4.26,8.36-7.88,17.13-10.77,26.05l-0.02,0.05l-0.05-0.01L28.63,144.61z M360.28,118l-0.02-0.04
	c-4.28-8.34-9.26-16.42-14.82-24.03l-0.03-0.05l0.04-0.03l16.12-11.78l0.07,0.11h-0.01c6.14,8.42,11.67,17.38,16.42,26.65l0.03,0.04
	L360.28,118z M54.16,94.39L38,82.69l0.04-0.06c6.13-8.44,12.98-16.47,20.36-23.87l0.04-0.04L72.6,72.85l-0.04,0.03
	c-6.64,6.66-12.81,13.89-18.33,21.5l-0.04-0.03L54.16,94.39z M327.09,72.53l-0.04-0.04c-6.65-6.62-13.87-12.78-21.46-18.28v0.01
	l-0.01-0.01l0,0l-0.07-0.06l0.02-0.04V54.1l11.69-16.16l0.04,0.02c0,0,0.01,0.01,0.02,0.02l0,0c8.45,6.13,16.49,12.97,23.88,20.34
	l0.04,0.04L327.09,72.53z M93.71,54.72l0.2-0.26L82.17,38.38l0.07-0.07l0.01,0.01c8.43-6.15,17.4-11.67,26.67-16.42l0.05-0.03
	l0.02,0.05l9.1,17.75l-0.05,0.03c-8.35,4.27-16.43,9.25-24.03,14.8L93.71,54.72z M281.49,39.46l-0.05-0.03
	c-8.38-4.26-17.17-7.88-26.1-10.77l-0.06-0.01v-0.06l6.15-18.98l0.05,0.02c9.93,3.21,19.7,7.24,29.03,11.98l0.04,0.02L281.49,39.46z
	 M144.06,28.86l-0.04-0.04l-6.18-18.97l0.07-0.02c9.92-3.24,20.18-5.71,30.5-7.35h0.05l3.13,19.75l-0.05,0.01
	c-9.27,1.47-18.49,3.69-27.4,6.59l0.01,0.01L144.06,28.86z M227.92,22.15l-0.05-0.01C218.72,20.72,209.34,20,200,20l-0.35-0.05
	L199.61,0H200c10.36,0,20.77,0.8,30.94,2.38l0.05,0.01l-0.01,0.05L227.92,22.15z"/>
</svg>
