<?xml version="1.0" encoding="utf-8"?>
<!-- Generator: Adobe Illustrator 27.4.0, SVG Export Plug-In . SVG Version: 6.00 Build 0)  -->
<svg version="1.1" id="icon" xmlns="http://www.w3.org/2000/svg" xmlns:xlink="http://www.w3.org/1999/xlink" x="0px" y="0px"
	 viewBox="0 0 400 400" style="enable-background:new 0 0 400 400;" xml:space="preserve">
<path d="M365,280.13v28.28l15,15v33.14l-23.43,23.43h-33.14L300,356.56v-33.14l15-15v-28.28l-35,35v49.71L315.15,400h49.71
	L400,364.84v-49.71L365,280.13z M352,279.99h-24v80h24V279.99z"/>
<path d="M340.04,200c0-24.74-34.95-45.99-84.84-55.16C246.02,94.95,224.78,60,200.04,60s-45.99,34.95-55.16,84.84
	c-49.89,9.18-84.84,30.42-84.84,55.16s34.95,45.99,84.84,55.16c9.18,49.89,30.42,84.84,55.16,84.84s45.99-34.95,55.16-84.84
	C305.09,245.99,340.04,224.74,340.04,200z M200.04,90c10.65,0,20,20.33,25.32,50.98c-8.21-0.64-16.67-0.98-25.32-0.98
	s-17.11,0.34-25.32,0.98C180.04,110.33,189.39,90,200.04,90z M230.04,200c0,10.02-0.37,19.72-1.05,28.95
	c-9.22,0.68-18.93,1.05-28.95,1.05s-19.72-0.37-28.95-1.05c-0.68-9.22-1.05-18.93-1.05-28.95s0.37-19.72,1.05-28.95
	c9.22-0.68,18.93-1.05,28.95-1.05s19.72,0.37,28.95,1.05C229.67,180.28,230.04,189.98,230.04,200z M90.04,200
	c0-10.65,20.33-20,50.98-25.32c-0.64,8.21-0.98,16.67-0.98,25.32s0.34,17.11,0.98,25.32C110.37,220,90.04,210.65,90.04,200z
	 M200.04,310c-10.65,0-20-20.33-25.32-50.98c8.21,0.64,16.67,0.98,25.32,0.98s17.11-0.34,25.32-0.98
	C220.03,289.67,210.68,310,200.04,310z M259.05,225.32c0.64-8.21,0.98-16.67,0.98-25.32s-0.34-17.11-0.98-25.32
	c30.65,5.32,50.98,14.67,50.98,25.32S289.7,220,259.05,225.32z"/>
<g>
	<path d="M281.47,39.43l0.05,0.03l9.06-17.83l-0.04-0.02c-9.33-4.74-19.1-8.77-29.03-11.98l-0.05-0.02l-6.15,18.98v0.06l0.06,0.01
		C264.3,31.55,273.09,35.17,281.47,39.43z"/>
	<path d="M28.67,144.56l0.05,0.01l0.02-0.05c2.89-8.92,6.51-17.69,10.77-26.05l0.02-0.05l-17.78-9.05l-0.04-0.02l-0.02,0.05
		c-4.75,9.32-8.78,19.08-12,29.02c0,0.01,0,0.02,0,0.02l-0.01,0.04l18.98,6.13L28.67,144.56z"/>
	<path d="M93.75,54.72l0.3-0.22c7.6-5.55,15.68-10.53,24.03-14.8l0.05-0.03l-9.1-17.75L109,21.87l-0.05,0.03
		c-9.27,4.75-18.24,10.27-26.67,16.42l-0.01-0.01l-0.07,0.07l11.74,16.08L93.75,54.72z"/>
	<path d="M144.1,28.86l0.09-0.02l-0.01-0.01c8.91-2.9,18.13-5.12,27.4-6.59l0.05-0.01L168.5,2.48h-0.05
		c-10.32,1.64-20.58,4.11-30.5,7.35l-0.07,0.02l6.18,18.97L144.1,28.86z"/>
	<path d="M371.13,143.94L371.13,143.94l0.02,0.07c2.92,8.92,5.15,18.15,6.63,27.44l0.01,0.05l19.75-3.15l-0.01-0.05
		c-1.65-10.32-4.12-20.59-7.37-30.51l-0.01-0.05l-18.97,6.2H371.13z"/>
	<path d="M305.62,54.22L305.62,54.22c7.59,5.49,14.81,11.65,21.46,18.27l0.04,0.04l14.11-14.17l-0.04-0.04
		c-7.39-7.37-15.43-14.21-23.88-20.34c-0.01-0.01-0.02-0.02-0.02-0.02l-0.04-0.02L305.57,54.1v0.01l-0.02,0.04L305.62,54.22
		L305.62,54.22z"/>
	<path d="M380.04,199.57v0.05c0,0.13,0,0.25,0,0.38c0,9.43-0.74,18.91-2.19,28.16l-0.01,0.05l19.76,3.1l0.01-0.04
		c1.61-10.27,2.43-20.79,2.43-31.27v-0.5l-19.95,0.05L380.04,199.57z"/>
	<path d="M360.29,117.96l0.02,0.04l17.8-9.13l-0.03-0.04c-4.75-9.27-10.28-18.23-16.42-26.65h0.01l-0.07-0.11l-16.12,11.78
		l-0.04,0.03l0.03,0.05C351.04,101.54,356.01,109.62,360.29,117.96z"/>
	<path d="M54.23,94.35l0.04,0.03c5.52-7.61,11.69-14.84,18.33-21.5l0.04-0.03L58.48,58.72l-0.04,0.04
		c-7.38,7.4-14.23,15.43-20.36,23.87l-0.04,0.06l16.16,11.7L54.23,94.35z"/>
	<path d="M200.19,379.93l-0.07,0.07h-0.08c-9.41,0-18.86-0.73-28.07-2.18h-0.04l-3.1,19.76l0.05,0.01
		c10.24,1.6,20.72,2.41,31.16,2.41h0.17l-0.01-19.95L200.19,379.93z"/>
	<path d="M144.46,371.25L144.46,371.25c-8.91-2.88-17.68-6.51-26.05-10.77l-0.04-0.03l-9.06,17.78l-0.03,0.04l0.05,0.02
		c9.32,4.76,19.08,8.8,29.01,12.01l0.06,0.01l6.15-18.97l0.01-0.04h-0.01l0.01-0.01L144.46,371.25z"/>
	<path d="M231.03,2.39l-0.05-0.01C220.8,0.8,210.39,0,200.04,0h-0.39l0.04,19.95l0.35,0.05c9.34,0,18.72,0.72,27.87,2.14l0.05,0.01
		l3.06-19.71L231.03,2.39z"/>
	<path d="M245.96,374.08c-5.82,1.53-11.73,2.78-17.67,3.72h-0.05l3.12,19.76l0.05-0.01c7.88-1.24,15.72-2.97,23.4-5.15
		C251.28,386.65,248.3,380.52,245.96,374.08z"/>
	<path d="M19.98,200.26l0.05-0.26c0-9.37,0.73-18.78,2.16-27.97l0.01-0.05L2.44,168.9l-0.01,0.05c-1.59,10.2-2.4,20.65-2.4,31.05
		v0.17h-0.07l0.07,0.07v0.03L19.98,200.26z"/>
	<path d="M94.33,345.71c-7.6-5.52-14.83-11.69-21.49-18.34l-0.03-0.03l-14.14,14.15l0.04,0.03c7.38,7.38,15.41,14.22,23.85,20.36
		l0.05,0.05l11.74-16.13h0.1l-0.11-0.08L94.33,345.71z"/>
	<path d="M28.81,255.87l0.05-0.02l-0.01-0.03l-0.01-0.05h-0.01c-2.9-8.91-5.11-18.13-6.58-27.41l-0.01-0.05L2.5,231.43l0.01,0.05
		C4.13,241.8,6.6,252.06,9.83,262l0.01,0.06l18.98-6.18L28.81,255.87z"/>
	<path d="M54.44,305.88c-5.53-7.6-10.49-15.67-14.76-24.01l-0.02-0.05l-17.76,9.09l-0.05,0.03l0.03,0.04
		c4.75,9.28,10.28,18.27,16.43,26.72l0.04,0.04l16.12-11.75l0.03-0.03v-0.01l-0.05-0.08L54.44,305.88z"/>
</g>
</svg>
