<?xml version="1.0" encoding="utf-8"?>
<!-- Generator: Adobe Illustrator 27.4.0, SVG Export Plug-In . SVG Version: 6.00 Build 0)  -->
<svg version="1.1" id="Layer_1" xmlns="http://www.w3.org/2000/svg" xmlns:xlink="http://www.w3.org/1999/xlink" x="0px" y="0px"
	 viewBox="0 0 400 400" style="enable-background:new 0 0 400 400;" xml:space="preserve">
<style type="text/css">
	.st0{fill-rule:evenodd;clip-rule:evenodd;}
</style>
<path class="st0" d="M163.77,168.09c5.33,1.27,10.79,1.91,16.27,1.91c38.65-0.01,69.97-31.35,69.96-70V0H110v100
	c-0.02,17.88,6.83,35.09,19.14,48.07l-6.47,11.2l-86.6-50l-20,34.64l34.64,20l-5,8.66l7.32,27.32l60.62,35l3.66,13.66l225.3,129.8
	l13.33-23.09l-190.66-109.8l13.33-23.09l190.66,109.8l13.34-23.09l-62.7-36.2l-162.6-93.6L163.77,168.09z M180,56.25
	c24.16,0,43.75,19.59,43.75,43.75s-19.59,43.75-43.75,43.75s-43.75-19.59-43.75-43.75S155.84,56.25,180,56.25z M147.97,235.46
	l-17.32-10l13.33-23.09l17.32,10L147.97,235.46z"/>
<circle class="st0" cx="180" cy="100" r="17.5"/>
</svg>
