<?xml version="1.0" encoding="UTF-8" standalone="no"?><!DOCTYPE svg PUBLIC "-//W3C//DTD SVG 1.1//EN" "http://www.w3.org/Graphics/SVG/1.1/DTD/svg11.dtd"><svg width="100%" height="100%" viewBox="0 0 400 400" version="1.1" xmlns="http://www.w3.org/2000/svg" xmlns:xlink="http://www.w3.org/1999/xlink" xml:space="preserve" xmlns:serif="http://www.serif.com/" style="fill-rule:evenodd;clip-rule:evenodd;stroke-linejoin:round;stroke-miterlimit:2;"><g id="icon"><path d="M290,60l60,20l0,20l-190,190l-20,0l-30,30l-10,0l-20,-20l0,-10l30,-30l0,-20l180,-180Zm-70,140l-30,-10l10,30l20,-20Zm100,-100l-30,-10l-80,80l30,10l80,-80Z"/><path d="M320,50l30,-30l30,30l-15,15l-45,-15Z"/><path d="M70,320l10,10l-40,40l0,-20l30,-30Z"/></g></svg>