<?xml version="1.0" encoding="UTF-8" standalone="no"?><!DOCTYPE svg PUBLIC "-//W3C//DTD SVG 1.1//EN" "http://www.w3.org/Graphics/SVG/1.1/DTD/svg11.dtd"><svg width="100%" height="100%" viewBox="0 0 400 400" version="1.1" xmlns="http://www.w3.org/2000/svg" xmlns:xlink="http://www.w3.org/1999/xlink" xml:space="preserve" xmlns:serif="http://www.serif.com/" style="fill-rule:evenodd;clip-rule:evenodd;stroke-linejoin:round;stroke-miterlimit:2;"><g id="icon"><path d="M110,340l-60,-20l0,-20l190,-190l20,0l30,-30l10,0l20,20l0,10l-30,30l0,20l-180,180Zm70,-140l30,10l-10,-30l-20,20Zm-100,100l30,10l80,-80l-30,-10l-80,80Z"/><path d="M80,350l-30,30l-30,-30l15,-15l45,15Z"/><path d="M330,80l-10,-10l40,-40l0,20l-30,30Z"/><path d="M360,90l-40,170l40,0l0,-170Z"/><path d="M310,40l-170,0l0,40l170,-40Z"/></g></svg>